<svg width="24" height="24" viewBox="0 0 24 24" fill="none" xmlns="http://www.w3.org/2000/svg">
<path d="M17.7795 5.63367C17.5472 5.40141 17.2383 5.27344 16.9097 5.27344H16.5234V5.97656H16.9095C17.0503 5.97656 17.1825 6.03141 17.2821 6.13102L17.8924 6.74133C17.992 6.84094 18.0469 6.97312 18.0469 7.11398V7.5H18.75V7.11398C18.75 6.78539 18.622 6.47648 18.3898 6.24422L17.7795 5.63367Z" fill="white"/>
<path d="M19.2511 9.83039C20.6009 8.69156 21.375 7.02539 21.375 5.25937V4.16133C21.375 3.32719 20.6963 2.64844 19.8621 2.64844H18.7641C16.998 2.64844 15.3321 3.42258 14.1933 4.77234L13.4538 5.64844H11.3721L11.5219 5.49867C11.6592 5.36133 11.6592 5.13891 11.5219 5.00156L10.0219 3.50156C9.88453 3.36422 9.66188 3.36422 9.52477 3.50156L7.37789 5.64844H3.02344C2.82937 5.64844 2.67188 5.80594 2.67188 6V8.25C2.67188 8.40141 2.76867 8.5357 2.91234 8.58352L9.20695 10.6816L7.52625 12.6734C6.9832 13.317 6.49547 13.9985 6.06492 14.7138L2.94703 15.4066C2.78625 15.4425 2.67188 15.5852 2.67188 15.75V17.25C2.67188 17.4176 2.79023 17.562 2.95453 17.5948L4.58719 17.9213L4.28367 18.7556C4.18219 19.0348 4.25227 19.3509 4.46227 19.5609C4.60852 19.7072 4.80586 19.7855 5.00672 19.7855C5.09437 19.7855 5.18297 19.7705 5.26781 19.7395L6.10219 19.436L6.42867 21.0687C6.46148 21.233 6.60586 21.3513 6.77344 21.3513H8.27344C8.4382 21.3513 8.58094 21.237 8.61656 21.0759L9.30938 17.958C10.0247 17.5275 10.7063 17.0398 11.3498 16.4967L13.3416 14.816L15.4397 21.1106C15.4875 21.2543 15.6218 21.3511 15.7732 21.3511H18.0232C18.2173 21.3511 18.3748 21.1936 18.3748 20.9995V16.6455L20.5219 14.4984C20.6592 14.3611 20.6592 14.1387 20.5219 14.0013L19.0219 12.5013C18.8845 12.364 18.6619 12.364 18.5248 12.5013L18.375 12.6511V10.5694L19.2511 9.83039ZM9.77344 4.24711L10.7763 5.25L10.3779 5.64844H8.37234L9.77344 4.24711ZM3.375 7.99664V6.35156H7.52344H10.5234H12.8606L9.69516 10.1032L3.375 7.99664ZM3.375 16.032L5.6025 15.537C5.31258 16.0915 5.05547 16.6641 4.83188 17.253L3.375 16.9617V16.032ZM7.99148 20.6484H7.06172L6.77039 19.1916C7.35938 18.968 7.93195 18.7109 8.48648 18.4209L7.99148 20.6484ZM10.8966 15.9598C9.53508 17.1087 7.9957 17.9998 6.32156 18.6087L5.02758 19.0793C5.00391 19.088 4.97742 19.0819 4.95961 19.0643C4.9418 19.0465 4.93594 19.02 4.94461 18.9963L5.41523 17.7023C6.02414 16.0282 6.91523 14.4888 8.06414 13.1273L14.7305 5.22563C15.7355 4.03477 17.2055 3.35156 18.7638 3.35156H19.8619C20.3084 3.35156 20.6716 3.71484 20.6716 4.16133V5.25937C20.6716 6.81773 19.9884 8.28797 18.7976 9.29297L10.8966 15.9598ZM18.7734 13.2471L19.7763 14.25L18.375 15.6513V13.6458L18.7734 13.2471ZM17.6719 13.5V16.5V20.6484H16.0268L13.9202 14.3283L17.6719 11.1628V13.5Z" fill="white"/>
<path d="M15.5246 8.00129L9.14966 14.3765L9.64685 14.8736L16.0218 8.49846L15.5246 8.00129Z" fill="white"/>
<path d="M4.27456 11.0015L3.52466 11.7515L4.02185 12.2486L4.77176 11.4987L4.27456 11.0015Z" fill="white"/>
<path d="M12.5246 19.2515L11.7747 20.0015L12.2719 20.4986L13.0218 19.7487L12.5246 19.2515Z" fill="white"/>
</svg>
