<svg width="24" height="24" viewBox="0 0 24 24" fill="none" xmlns="http://www.w3.org/2000/svg">
<path d="M12 1.125C9.84913 1.125 7.74656 1.76281 5.95818 2.95777C4.16979 4.15273 2.77592 5.85117 1.95281 7.83832C1.12971 9.82546 0.914351 12.0121 1.33396 14.1216C1.75358 16.2312 2.78932 18.1689 4.31022 19.6898C5.83111 21.2107 7.76885 22.2464 9.8784 22.666C11.9879 23.0857 14.1745 22.8703 16.1617 22.0472C18.1488 21.2241 19.8473 19.8302 21.0422 18.0418C22.2372 16.2534 22.875 14.1509 22.875 12C22.87 9.11729 21.7227 6.35407 19.6843 4.31569C17.6459 2.2773 14.8827 1.12996 12 1.125ZM13.1081 1.93687C15.074 2.15212 16.9332 2.94085 18.4541 4.20487C17.0809 4.27238 14.0651 4.19925 13.2645 3.18038C13.1646 3.04827 13.1012 2.89212 13.081 2.7277C13.0607 2.56329 13.0842 2.39644 13.149 2.244C13.1649 2.19291 13.1695 2.13897 13.1624 2.08593C13.1553 2.0329 13.1368 1.98203 13.1081 1.93687ZM1.875 12C1.87385 10.424 2.24302 8.86969 2.95275 7.4625L2.964 7.45237C2.98913 7.4295 5.51438 5.19938 6.89701 6.25875C7.011 6.3465 6.85201 7.07925 6.74701 7.5645C6.56828 8.32884 6.44025 9.10415 6.36375 9.88538C6.26754 10.886 6.40257 11.8955 6.75843 12.8356C7.11429 13.7758 7.68145 14.6217 8.41613 15.3079C9.24338 16.11 11.3809 16.9703 13.0984 17.6618C13.7023 17.8851 14.2933 18.1417 14.8688 18.4305C14.8139 18.5533 14.7474 18.6704 14.67 18.7804C14.4435 19.1306 14.1338 19.6103 14.3404 20.1401C14.5605 20.7071 15.5809 20.9587 16.4914 21.0709C14.9481 21.8364 13.235 22.1953 11.5143 22.1136C9.7935 22.0319 8.1221 21.5122 6.65837 20.6038C5.19464 19.6954 3.98705 18.4284 3.14997 16.9228C2.31289 15.4171 1.87405 13.7227 1.875 12ZM17.6393 20.4049C16.4051 20.3674 15.1669 20.1116 15.0394 19.8682C14.9719 19.695 15.1388 19.437 15.3 19.1876C15.5175 18.8509 15.8464 18.342 15.4204 17.916C15.2235 17.7188 14.7319 17.511 13.3785 16.9657C11.8088 16.3343 9.65963 15.4687 8.93738 14.7694C8.28419 14.1597 7.77978 13.4081 7.46307 12.5727C7.14636 11.7372 7.02583 10.8401 7.11075 9.95062C7.31963 7.56825 8.13 6.2595 7.353 5.66362C6.31876 4.86975 4.99238 5.27775 3.98025 5.82975C4.85421 4.69547 5.95727 3.758 7.21763 3.07837C7.2564 3.13459 7.3102 3.17877 7.37288 3.20587C8.85563 3.80212 10.2604 4.63837 10.3193 4.95262C10.3273 5.13481 10.3748 5.31308 10.4585 5.47512C10.5421 5.63717 10.6599 5.77915 10.8038 5.89125C11.5813 6.48866 12.5615 6.75861 13.5353 6.6435C14.6355 6.50175 14.7866 6.5535 15.5441 7.34513C15.8516 7.66762 15.7928 7.78275 15.3195 8.28562C15.0832 8.51164 14.8859 8.7752 14.7356 9.06562C14.3093 10.0136 14.9614 11.103 15.3473 12.1316C15.4122 12.2506 15.4327 12.3889 15.4051 12.5216C15.3775 12.6543 15.3035 12.7729 15.1965 12.8561C15.0978 12.9049 14.9846 12.9156 14.8786 12.886C14.7726 12.8565 14.6812 12.7888 14.622 12.696C13.8353 11.8042 12.5333 11.4637 11.7795 11.9535C11.5729 12.0874 10.9395 12.618 11.478 13.7981C11.8215 14.5507 15.7706 16.8701 16.236 16.9759C16.6051 17.0016 16.9757 16.9542 17.3265 16.8364C17.985 16.637 18.6747 16.5607 19.3609 16.6114C20.1941 16.7501 20.3726 17.0711 20.3869 17.1004C20.4048 17.1516 20.4338 17.1983 20.4717 17.2372C20.5096 17.276 20.5555 17.3061 20.6063 17.3254C19.8459 18.5499 18.8347 19.5995 17.6393 20.4049ZM20.9888 16.6511C20.8193 16.4036 20.415 16.0268 19.4839 15.8715C18.6997 15.8014 17.9093 15.8809 17.1548 16.1059C16.9105 16.1753 16.6603 16.222 16.4074 16.2454C15.8876 16.0931 12.4286 13.9598 12.1598 13.4865C12.0435 13.2315 11.892 12.774 12.1879 12.582C12.5329 12.3581 13.434 12.4838 14.0591 13.1921C14.2336 13.4179 14.4836 13.5733 14.7633 13.6297C15.043 13.6861 15.3337 13.6398 15.582 13.4993C15.8432 13.3292 16.0343 13.0705 16.1202 12.7709C16.206 12.4712 16.1808 12.1506 16.0493 11.868C15.6821 10.893 15.1504 9.97087 15.4193 9.37387C15.5377 9.16083 15.688 8.96721 15.8651 8.79975C16.2559 8.38425 16.9103 7.689 16.0856 6.82725C15.1669 5.86725 14.7731 5.72775 13.4389 5.8995C12.679 5.98567 11.9145 5.78154 11.2988 5.328C11.1771 5.23684 11.0949 5.1025 11.0693 4.95262C11.0693 4.11487 9.33076 3.2205 8.05313 2.67638C9.30136 2.14617 10.6438 1.87359 12 1.875C12.1698 1.875 12.3384 1.87925 12.5059 1.88775C12.4739 1.9254 12.4497 1.96898 12.4346 2.016C12.3329 2.28537 12.3015 2.57626 12.3436 2.86113C12.3857 3.14599 12.4997 3.41541 12.675 3.64388C13.5788 4.79325 16.095 4.97587 17.5924 4.97587C18.1661 4.97587 18.5903 4.94887 18.7166 4.9395L19.2285 4.94925C19.2368 4.94925 19.2439 4.9455 19.2521 4.94475C20.7367 6.465 21.7038 8.41491 22.0156 10.5168C22.3274 12.6187 21.9681 14.7654 20.9888 16.6511Z" fill="white"/>
</svg>
