<svg width="24" height="24" viewBox="0 0 24 24" fill="none" xmlns="http://www.w3.org/2000/svg">
<path d="M23.4878 12.2245C23.4878 11.2413 23.4095 10.5238 23.2402 9.77966H12.229V14.2176H18.6923C18.5621 15.3205 17.8584 16.9815 16.2946 18.0976L16.2727 18.2462L19.7543 20.9964L19.9955 21.0209C22.2107 18.9347 23.4878 15.8653 23.4878 12.2245Z" fill="#4285F4"/>
<path d="M12.2291 23.9176C15.3956 23.9176 18.0539 22.8545 19.9956 21.0209L16.2948 18.0976C15.3044 18.8018 13.9753 19.2934 12.2291 19.2934C9.12779 19.2934 6.49555 17.2074 5.55723 14.324L5.41969 14.3359L1.79954 17.1927L1.7522 17.3269C3.68076 21.2334 7.6422 23.9176 12.2291 23.9176Z" fill="#34A853"/>
<path d="M5.5572 14.3239C5.30961 13.5798 5.16633 12.7825 5.16633 11.9587C5.16633 11.1349 5.30961 10.3376 5.54417 9.59354L5.53761 9.43507L1.87209 6.53235L1.75217 6.59052C0.95731 8.21162 0.501221 10.032 0.501221 11.9587C0.501221 13.8854 0.95731 15.7058 1.75217 17.3269L5.5572 14.3239Z" fill="#FBBC05"/>
<path d="M12.2291 4.62403C14.4313 4.62403 15.9169 5.59402 16.7639 6.40461L20.0738 3.10928C18.041 1.1826 15.3956 0 12.2291 0C7.6422 0 3.68076 2.68406 1.7522 6.59056L5.5442 9.59359C6.49555 6.7102 9.12779 4.62403 12.2291 4.62403Z" fill="#EB4335"/>
</svg>
